# xmcd
#
# Track frame offsets:
#  150
#  20138
#  35803
#  50311
#  63324
#  77649
#  95024
#  116148
#  130046
#  150714
#  162202
#  180253
#  196482
#
# Disc length: 2887 seconds
#
# Revision: 0
# Processed by: cddbd v1.4PL0 Copyright (c) Steve Scherf et al.
# Submitted via: AltoMP3_Maker 3.0
#
DISCID=aa0b450d
DTITLE=Andreas Silver - Country Songs
DYEAR=1900
DGENRE=
TTITLE0=Little Man
TTITLE1=Achy Breaky Heart
TTITLE2=Tired of Toeing The Line
TTITLE3=She´s Every Woman
TTITLE4=Every Little Thing
TTITLE5=Carried Away
TTITLE6=That Summer
TTITLE7=Ain´t That Lonely Yet
TTITLE8=On My Own(with C Lindberg)
TTITLE9=www.memory
TTITLE10=Something That We Do
TTITLE11=The Thunder Rolls
TTITLE12=Amazed
EXTD=
EXTT0=
EXTT1=
EXTT2=
EXTT3=
EXTT4=
EXTT5=
EXTT6=
EXTT7=
EXTT8=
EXTT9=
EXTT10=
EXTT11=
EXTT12=
PLAYORDER=
